HIERARCHY
ROOT Hips
{
	OFFSET 0.000000 0.000000 0.000000
	CHANNELS 6 Xposition Yposition Zposition Xrotation Yrotation Zrotation
	JOINT LeftUpLeg_virtual
	{
		OFFSET 0.000000 0.000000 0.000000
		CHANNELS 3 Xrotation Yrotation Zrotation
		JOINT LeftUpLeg
		{
			OFFSET 15.427100 -6.655098 0.678600
			CHANNELS 3 Xrotation Yrotation Zrotation
			JOINT LeftLeg
			{
				OFFSET 4.081073 -39.591068 13.024000
				CHANNELS 3 Xrotation Yrotation Zrotation
				JOINT LeftFoot
				{
					OFFSET -4.081074 -37.707932 -15.979700
					CHANNELS 3 Xrotation Yrotation Zrotation
					JOINT LeftToeBase
					{
						OFFSET 5.346399 -15.068900 20.645000
						CHANNELS 3 Xrotation Yrotation Zrotation
						JOINT LeftToe_End
						{
							OFFSET 2.754700 0.931300 11.300900
							CHANNELS 3 Xrotation Yrotation Zrotation
							End Site
							{
								OFFSET 0 0 0
							}
						}
					}
				}
			}
		}
	}
	JOINT RightUpLeg_virtual
	{
		OFFSET 0.000000 0.000000 0.000000
		CHANNELS 3 Xrotation Yrotation Zrotation
		JOINT RightUpLeg
		{
			OFFSET -15.569500 -6.655098 0.678600
			CHANNELS 3 Xrotation Yrotation Zrotation
			JOINT RightLeg
			{
				OFFSET -4.081825 -39.591045 13.023800
				CHANNELS 3 Xrotation Yrotation Zrotation
				JOINT RightFoot
				{
					OFFSET 4.081824 -37.707954 -15.979600
					CHANNELS 3 Xrotation Yrotation Zrotation
					JOINT RightToeBase
					{
						OFFSET -5.346400 -15.068900 20.645000
						CHANNELS 3 Xrotation Yrotation Zrotation
						JOINT RightToe_End
						{
							OFFSET -2.754700 0.931300 11.300900
							CHANNELS 3 Xrotation Yrotation Zrotation
							End Site
							{
								OFFSET 0 0 0
							}
						}
					}
				}
			}
		}
	}
	JOINT Spine_virtual
	{
		OFFSET 0.000000 0.000000 0.000000
		CHANNELS 3 Xrotation Yrotation Zrotation
		JOINT Spine
		{
			OFFSET -0.279200 12.230698 -2.892100
			CHANNELS 3 Xrotation Yrotation Zrotation
			JOINT Spine1
			{
				OFFSET -0.232667 10.192268 -1.242267
				CHANNELS 3 Xrotation Yrotation Zrotation
				JOINT Spine1_split
				{
					OFFSET -0.232667 10.192268 -1.242267
					CHANNELS 3 Xrotation Yrotation Zrotation
					JOINT Spine2
					{
						OFFSET -0.232667 10.192268 -1.242267
						CHANNELS 3 Xrotation Yrotation Zrotation
						JOINT Neck_virtual
						{
							OFFSET 0.000000 0.000000 0.000000
							CHANNELS 3 Xrotation Yrotation Zrotation
							JOINT Neck
							{
								OFFSET -0.418800 17.814194 8.416900
								CHANNELS 3 Xrotation Yrotation Zrotation
								JOINT Head
								{
									OFFSET 0.000000 7.031097 3.806800
									CHANNELS 3 Xrotation Yrotation Zrotation
									JOINT HeadTop_End
									{
										OFFSET 0.000000 24.646606 12.978600
										CHANNELS 3 Xrotation Yrotation Zrotation
										End Site
										{
											OFFSET 0 0 0
										}
									}
								}
							}
						}
						JOINT LeftShoulder_virtual
						{
							OFFSET 0.000000 0.000000 0.000000
							CHANNELS 3 Xrotation Yrotation Zrotation
							JOINT LeftShoulder
							{
								OFFSET 8.476499 7.247704 -3.868750
								CHANNELS 3 Xrotation Yrotation Zrotation
								JOINT LeftShoulder_split
								{
									OFFSET 8.476499 7.247704 -3.868750
									CHANNELS 3 Xrotation Yrotation Zrotation
									JOINT LeftArm
									{
										OFFSET 9.308998 -2.777710 0.208600
										CHANNELS 3 Xrotation Yrotation Zrotation
										JOINT LeftForeArm
										{
											OFFSET 29.972298 0.000000 0.000000
											CHANNELS 3 Xrotation Yrotation Zrotation
											JOINT LeftHand
											{
												OFFSET 26.026505 0.000000 0.000000
												CHANNELS 3 Xrotation Yrotation Zrotation
												End Site
												{
													OFFSET 0 0 0
												}
											}
										}
									}
								}
							}
						}
						JOINT RightShoulder_virtual
						{
							OFFSET 0.000000 0.000000 0.000000
							CHANNELS 3 Xrotation Yrotation Zrotation
							JOINT RightShoulder
							{
								OFFSET -7.570500 7.247704 -3.868750
								CHANNELS 3 Xrotation Yrotation Zrotation
								JOINT RightShoulder_split
								{
									OFFSET -7.570500 7.247704 -3.868750
									CHANNELS 3 Xrotation Yrotation Zrotation
									JOINT RightArm
									{
										OFFSET -9.308998 -2.777710 0.208500
										CHANNELS 3 Xrotation Yrotation Zrotation
										JOINT RightForeArm
										{
											OFFSET -29.972300 0.000000 0.000000
											CHANNELS 3 Xrotation Yrotation Zrotation
											JOINT RightHand
											{
												OFFSET -26.026505 0.000000 0.000000
												CHANNELS 3 Xrotation Yrotation Zrotation
												End Site
												{
													OFFSET 0 0 0
												}
											}
										}
									}
								}
							}
						}
					}
				}
			}
		}
	}
}
MOTION
Frames: 10
Frame Time: 0.03333333
0.003961 90.731888 -0.487461 0.000000 0.000000 0.000000 -8.979461 -3.003054 8.985080 7.549657 12.894392 -11.449901 14.274711 3.563092 -3.923267 -14.802314 -1.328516 1.683974 -1.739004 0.371605 -1.063987 0.000000 0.000000 0.000000 -8.749624 -2.933826 8.806560 -1.198574 -6.597446 -34.994611 22.037752 6.090008 8.275750 -8.104850 -15.356022 9.589962 -4.655730 0.582488 0.176996 0.000000 0.000000 0.000000 -8.435478 -6.040149 8.192325 2.468124 -1.106681 -6.679280 4.062471 2.187603 -3.120618 2.136391 -1.260669 1.701299 0.000000 0.000000 0.000000 3.683392 1.838618 -3.296416 0.249943 -3.287607 -6.523694 -1.073284 -11.806194 5.884318 0.000000 0.000000 0.000000 4.535901 1.289607 -3.403107 3.527375 -8.140622 -19.251691 -6.293259 4.755192 -6.049560 17.511582 2.498303 -46.415128 1.078996 -46.796648 -5.383847 0.000000 0.000000 0.000000 2.696374 1.966059 -2.076639 6.247973 5.607297 6.270778 -3.076677 4.294053 0.596877 1.066696 -9.040855 68.109663 18.194806 30.086218 0.926792 0.000000 0.000000 0.000000 
-0.234586 91.135773 0.188786 0.000000 0.000000 0.000000 -8.823593 -2.566074 8.948499 7.345414 11.700001 -10.890951 14.505208 3.630072 -3.762091 -14.196903 -0.989950 2.180110 -2.076023 0.381691 -1.158081 0.000000 0.000000 0.000000 -8.752805 -2.440007 8.779125 -0.449894 -7.301552 -34.790798 21.357506 5.695589 7.991914 -7.748473 -14.742663 10.458885 -5.962522 0.573436 0.233372 0.000000 0.000000 0.000000 -8.607852 -5.409579 7.724664 2.502332 -1.038581 -6.748080 5.029458 2.227938 -2.857893 2.280738 -0.486317 1.836254 0.000000 0.000000 0.000000 4.396272 1.948177 -3.106287 -0.867725 -3.258614 -5.862771 -2.700681 -10.308425 5.434058 0.000000 0.000000 0.000000 5.433107 1.343780 -3.142752 3.577898 -9.374404 -17.596879 -4.014618 1.702784 -3.854467 18.658371 -0.366224 -47.489233 1.285948 -47.459972 -5.034741 0.000000 0.000000 0.000000 3.404798 2.062810 -1.936770 5.846776 5.933939 6.416324 -2.976000 5.397197 0.507301 2.141475 -6.765563 67.179145 18.712085 33.476205 -0.016628 0.000000 0.000000 0.000000 
-0.528247 91.822266 0.528111 0.000000 0.000000 0.000000 -8.988685 -2.125369 8.674472 7.070851 10.768319 -10.276507 14.740043 3.486373 -3.562718 -13.184769 -0.364111 2.758615 -2.808701 0.403293 -1.033514 0.000000 0.000000 0.000000 -8.700344 -1.967729 8.511933 0.493677 -8.142531 -34.324805 19.813207 4.879286 7.539336 -6.805688 -13.812192 10.910949 -6.589847 0.622327 0.194184 0.000000 0.000000 0.000000 -8.830066 -4.647725 6.989390 2.832670 -0.707073 -6.674352 6.566630 2.267081 -2.395906 1.929135 0.336972 1.571848 0.000000 0.000000 0.000000 6.009098 2.118892 -2.742639 -3.518671 -2.857084 -5.835321 -5.004702 -8.586134 4.494817 0.000000 0.000000 0.000000 7.032005 1.612970 -2.688583 3.590663 -11.619525 -14.781692 -1.849613 -0.280803 -2.394179 23.572784 -6.230324 -44.974060 -2.032926 -52.856501 -5.890420 0.000000 0.000000 0.000000 5.017676 2.206875 -1.678471 5.405102 6.341769 6.265929 -2.728616 6.011459 0.473540 4.244147 -1.456006 64.899891 20.295931 36.753617 -3.070999 0.000000 0.000000 0.000000 
-0.767479 92.504654 0.548512 0.000000 0.000000 0.000000 -9.337126 -1.831032 8.170592 6.718376 10.434575 -9.787145 14.924216 3.150555 -3.431867 -11.862180 0.491757 3.234078 -3.579803 0.433804 -0.835800 0.000000 0.000000 0.000000 -8.533042 -1.576870 8.035131 0.828833 -8.589674 -33.709425 18.647035 3.949095 7.076589 -4.837955 -12.636584 11.225885 -7.238451 0.671966 0.045489 0.000000 0.000000 0.000000 -9.256544 -3.879685 6.169903 3.445526 -0.223110 -6.503631 8.422962 2.223927 -1.782770 1.249021 0.198940 1.459358 0.000000 0.000000 0.000000 8.263640 2.214177 -2.247683 -7.148455 -1.905191 -6.348458 -7.873711 -6.671946 3.074964 0.000000 0.000000 0.000000 8.987844 1.933923 -2.113295 3.664513 -14.488930 -11.163893 -0.667693 -0.514571 -3.048580 30.904014 -12.181210 -39.085549 -9.443510 -62.123480 -8.750497 0.000000 0.000000 0.000000 7.242287 2.289397 -1.330787 4.847320 6.957442 6.054441 -2.381904 5.760704 0.359742 7.008658 4.858732 61.378368 22.906597 39.733184 -8.090723 0.000000 0.000000 0.000000 
-1.041053 93.116348 0.431763 0.000000 0.000000 0.000000 -9.743576 -1.557316 7.513562 6.226179 10.791903 -9.396138 15.041625 2.607552 -3.456634 -10.295866 1.404941 3.455906 -4.267692 0.468730 -0.618784 0.000000 0.000000 0.000000 -8.188330 -1.116583 7.395607 -0.106986 -8.131700 -33.064406 19.306235 3.446986 6.724525 -1.796079 -11.169844 12.006050 -8.710145 0.706807 -0.199798 0.000000 0.000000 0.000000 -9.745690 -3.022614 5.393835 4.260940 0.213465 -6.257630 10.345304 2.065082 -1.131897 0.050864 0.052562 1.107526 0.000000 0.000000 0.000000 10.786450 2.119774 -1.706809 -11.005578 -0.410648 -7.168268 -11.337295 -4.646650 1.232598 0.000000 0.000000 0.000000 11.016091 2.142754 -1.543625 3.809457 -17.636930 -7.565344 0.178650 -0.153191 -5.106111 39.347951 -16.075648 -31.186999 -21.645015 -72.803102 -15.254343 0.000000 0.000000 0.000000 9.695483 2.225824 -0.941784 4.215786 8.050747 6.252586 -2.308484 5.114670 -0.174874 10.193998 10.476878 56.849997 26.396424 43.075292 -14.978400 0.000000 0.000000 0.000000 
-1.258402 93.716751 -0.136723 0.000000 0.000000 0.000000 -9.949870 -1.247015 6.769196 5.513851 11.646354 -8.988024 15.163087 1.890810 -3.633233 -8.387688 2.191412 3.476824 -4.834457 0.488497 -0.426619 0.000000 0.000000 0.000000 -7.716498 -0.482400 6.617468 -2.620535 -6.354349 -32.288241 22.523343 3.636517 6.380946 1.295001 -9.453480 12.893394 -10.316209 0.707499 -0.442541 0.000000 0.000000 0.000000 -9.968473 -2.225146 4.731774 5.141867 0.486116 -5.988809 12.121474 1.772053 -0.573741 -0.911602 -0.401358 0.940802 0.000000 0.000000 0.000000 13.146671 1.893317 -1.197142 -14.334914 1.447616 -8.124301 -15.152920 -2.660154 -0.778037 0.000000 0.000000 0.000000 12.832609 2.204996 -1.049979 3.898523 -20.807847 -4.865571 0.573433 -0.149047 -7.886198 47.467742 -17.189899 -23.335403 -43.704700 -82.436149 -31.501802 0.000000 0.000000 0.000000 11.911813 2.073353 -0.575178 3.504020 9.784534 7.258666 -2.264290 4.614438 -1.236768 13.069108 13.637119 51.612762 30.926598 47.546484 -23.770486 0.000000 0.000000 0.000000 
-1.426650 94.302795 -1.266563 0.000000 0.000000 0.000000 -9.716520 -0.967070 5.939665 4.378244 12.672088 -8.200975 15.357860 1.049141 -3.952234 -6.156484 2.762817 3.384914 -5.214407 0.466526 -0.249049 0.000000 0.000000 0.000000 -7.180230 0.114191 5.667707 -6.502403 -3.540856 -31.204303 28.179496 4.346944 6.025160 3.268448 -7.685605 13.004722 -10.213526 0.663743 -0.536097 0.000000 0.000000 0.000000 -9.577743 -1.469438 4.073869 5.984350 0.614602 -5.629789 13.622408 1.451080 -0.194238 -0.848379 -0.452198 0.995432 0.000000 0.000000 0.000000 15.005026 1.635493 -0.802537 -16.279718 3.278504 -9.089130 -18.892211 -0.723901 -2.697575 0.000000 0.000000 0.000000 14.266964 2.126822 -0.751234 3.713689 -23.444549 -3.949143 0.469769 -1.305462 -9.744018 53.277467 -17.196605 -16.581669 -149.817331 -87.142204 -132.638927 0.000000 0.000000 0.000000 13.680608 1.898634 -0.327116 2.727700 11.941519 9.055706 -1.636390 4.602846 -2.601557 14.699011 13.546123 46.301542 37.429860 53.800738 -35.092914 0.000000 0.000000 0.000000 
-1.696704 94.815094 -2.560692 0.000000 0.000000 0.000000 -9.089239 -0.633857 5.018273 2.719187 13.454113 -6.813984 15.650351 0.224032 -4.332493 -4.071206 3.073535 3.414992 -5.158196 0.405632 -0.218262 0.000000 0.000000 0.000000 -6.685791 0.754630 4.677632 -11.361784 -0.331998 -29.529111 35.126754 5.047432 5.606675 3.672086 -6.175466 11.821232 -7.854909 0.633804 -0.412963 0.000000 0.000000 0.000000 -8.313106 -0.690931 3.366337 6.684637 0.625308 -5.107380 14.760280 1.268811 -0.059838 -0.415975 0.279281 1.074834 0.000000 0.000000 0.000000 16.221836 1.519579 -0.611834 -16.173879 4.668359 -9.994391 -21.897687 0.962446 -4.216110 0.000000 0.000000 0.000000 15.352337 2.071350 -0.659311 3.008816 -25.116882 -5.313173 -0.470823 -2.923940 -9.960880 55.897981 -16.783356 -10.692107 153.882536 -82.067783 174.829907 0.000000 0.000000 0.000000 14.888025 1.855749 -0.254639 1.988156 14.245478 11.471170 -0.655885 4.457289 -3.888764 14.605152 10.676895 41.071208 48.787000 61.784464 -51.346350 0.000000 0.000000 0.000000 
-2.129085 95.068130 -3.964504 0.000000 0.000000 0.000000 -8.128898 -0.193483 4.039488 0.328477 13.624601 -4.815855 16.260744 -0.418673 -4.661864 -2.560738 3.202500 3.491980 -4.502074 0.318536 -0.501842 0.000000 0.000000 0.000000 -6.296301 1.160904 3.719574 -16.717761 2.541760 -27.286934 41.795919 5.443040 5.176241 2.776018 -5.089155 9.703735 -4.777211 0.637713 -0.162042 0.000000 0.000000 0.000000 -6.437992 0.015022 2.601211 7.196824 0.638892 -4.403810 15.556376 1.351426 -0.126114 0.450318 0.945105 1.197855 0.000000 0.000000 0.000000 16.874928 1.712275 -0.630631 -13.329008 5.392655 -10.887591 -23.403133 2.153233 -5.255902 0.000000 0.000000 0.000000 16.218817 2.191726 -0.690645 1.954258 -25.570466 -8.316268 -1.510998 -4.379075 -8.852548 55.001065 -15.165515 -6.044229 142.228512 -77.611590 165.347829 0.000000 0.000000 0.000000 15.578867 2.038827 -0.347443 1.366434 16.426643 14.111964 0.350469 3.828363 -4.621523 12.708228 5.984762 35.876183 72.112714 69.781980 -79.016662 0.000000 0.000000 0.000000 
-2.859830 95.059967 -5.115139 0.000000 0.000000 0.000000 -7.008814 0.182715 3.062533 -2.739189 13.079941 -2.382418 17.520723 -0.837139 -4.899728 -2.122258 3.268916 3.458926 -3.615062 0.228975 -1.040991 0.000000 0.000000 0.000000 -5.980110 1.127717 2.845785 -21.638907 4.245222 -24.853013 47.027191 5.478778 4.860453 1.283538 -4.459667 7.341154 -2.781132 0.674593 0.098298 0.000000 0.000000 0.000000 -4.480396 0.481695 1.818746 7.527436 0.720046 -3.528558 16.139372 1.715491 -0.299185 1.142489 1.440522 1.015295 0.000000 0.000000 0.000000 17.351768 2.165721 -0.800933 -7.501685 5.238219 -11.612355 -22.851953 2.645338 -5.886870 0.000000 0.000000 0.000000 17.030457 2.502313 -0.774449 0.851777 -24.827639 -11.921275 -2.316828 -5.346994 -6.768658 50.259448 -12.574942 -3.155417 143.804825 -73.422758 167.291687 0.000000 0.000000 0.000000 16.082589 2.383746 -0.564552 0.920168 18.400999 16.588532 1.299600 3.153539 -4.609963 9.537362 0.760203 30.669578 112.155272 72.698368 -122.475892 0.000000 0.000000 0.000000 
